<?xml version="1.0" encoding="UTF-8" standalone="no"?>
<svg width="326px" height="171px" viewBox="0 0 326 171" version="1.1" xmlns="http://www.w3.org/2000/svg" xmlns:xlink="http://www.w3.org/1999/xlink" xmlns:sketch="http://www.bohemiancoding.com/sketch/ns">
    <title>cvc-back</title>
    <description>Created with Sketch (http://www.bohemiancoding.com/sketch)</description>
    <defs></defs>
    <g id="Page-1" stroke="none" stroke-width="1" fill="none" fill-rule="evenodd" sketch:type="MSPage">
        <rect id="Rectangle-1" fill="#000000" sketch:type="MSShapeGroup" x="70" y="0" width="256" height="170" rx="13"></rect>
        <rect id="Rectangle-2" fill="#FFFFFF" sketch:type="MSShapeGroup" x="78" y="26" width="240" height="38"></rect>
        <polygon id="Triangle-1" fill="#979797" sketch:type="MSShapeGroup" transform="translate(20.000000, 85.000000) rotate(-90.000000) translate(-20.000000, -85.000000) " points="20 65 58 105 -18 105 "></polygon>
        <path d="M225,108.76 L231.21,108.76 L231.21,92.245 L225.855,92.245 L225.855,88.15 C227.415008,87.8499985 228.734995,87.4900021 229.815,87.07 C230.895005,86.6499979 231.944995,86.140003 232.965,85.54 L237.825,85.54 L237.825,108.76 L243.18,108.76 L243.18,114.115 L225,114.115 L225,108.76 Z M248.275,110.335 C250.105009,108.624991 251.777492,107.027507 253.2925,105.5425 C254.807508,104.057493 256.112495,102.662507 257.2075,101.3575 C258.302505,100.052493 259.157497,98.8375056 259.7725,97.7125 C260.387503,96.5874944 260.695,95.5150051 260.695,94.495 C260.695,93.084993 260.335004,92.0125037 259.615,91.2775 C258.894996,90.5424963 257.905006,90.175 256.645,90.175 C255.594995,90.175 254.665004,90.4674971 253.855,91.0525 C253.044996,91.6375029 252.280004,92.3199961 251.56,93.1 L247.96,89.545 C249.370007,88.0449925 250.809993,86.9125038 252.28,86.1475 C253.750007,85.3824962 255.50499,85 257.545,85 C258.955007,85 260.237494,85.2174978 261.3925,85.6525 C262.547506,86.0875022 263.544996,86.702496 264.385,87.4975 C265.225004,88.292504 265.869998,89.2449945 266.32,90.355 C266.770002,91.4650056 266.995,92.7099931 266.995,94.09 C266.995,95.290006 266.740003,96.5124938 266.23,97.7575 C265.719997,99.0025062 265.037504,100.247494 264.1825,101.4925 C263.327496,102.737506 262.352505,103.982494 261.2575,105.2275 C260.162495,106.472506 259.030006,107.694994 257.86,108.895 C258.580004,108.805 259.382496,108.7225 260.2675,108.6475 C261.152504,108.5725 261.939997,108.535 262.63,108.535 L268.39,108.535 L268.39,114.115 L248.275,114.115 L248.275,110.335 Z M275.42,106.42 C276.290004,107.260004 277.242495,107.949997 278.2775,108.49 C279.312505,109.030003 280.444994,109.3 281.675,109.3 C283.085007,109.3 284.209996,109.007503 285.05,108.4225 C285.890004,107.837497 286.31,107.005005 286.31,105.925 C286.31,105.294997 286.197501,104.725003 285.9725,104.215 C285.747499,103.704997 285.350003,103.277502 284.78,102.9325 C284.209997,102.587498 283.430005,102.317501 282.44,102.1225 C281.449995,101.927499 280.175008,101.83 278.615,101.83 L278.615,97.15 C279.905006,97.15 280.977496,97.0600009 281.8325,96.88 C282.687504,96.6999991 283.377497,96.4375017 283.9025,96.0925 C284.427503,95.7474983 284.802499,95.3425023 285.0275,94.8775 C285.252501,94.4124977 285.365,93.8950029 285.365,93.325 C285.365,92.3349951 285.065003,91.5625028 284.465,91.0075 C283.864997,90.4524972 282.995006,90.175 281.855,90.175 C280.834995,90.175 279.912504,90.3999978 279.0875,90.85 C278.262496,91.3000023 277.400005,91.9149961 276.5,92.695 L273.17,88.645 C274.490007,87.5049943 275.877493,86.6125032 277.3325,85.9675 C278.787507,85.3224968 280.399991,85 282.17,85 C283.640007,85 284.982494,85.1724983 286.1975,85.5175 C287.412506,85.8625017 288.447496,86.3724966 289.3025,87.0475 C290.157504,87.7225034 290.824998,88.5399952 291.305,89.5 C291.785002,90.4600048 292.025,91.5699937 292.025,92.83 C292.025,94.3300075 291.612504,95.5974948 290.7875,96.6325 C289.962496,97.6675052 288.785008,98.5149967 287.255,99.175 L287.255,99.355 C288.905008,99.8350024 290.262495,100.652494 291.3275,101.8075 C292.392505,102.962506 292.925,104.469991 292.925,106.33 C292.925,107.650007 292.640003,108.827495 292.07,109.8625 C291.499997,110.897505 290.735005,111.767496 289.775,112.4725 C288.814995,113.177504 287.690006,113.717498 286.4,114.0925 C285.109994,114.467502 283.745007,114.655 282.305,114.655 C279.964988,114.655 277.985008,114.287504 276.365,113.5525 C274.744992,112.817496 273.410005,111.835006 272.36,110.605 L275.42,106.42 Z" id="123" fill="#FFFFFF" sketch:type="MSShapeGroup"></path>
    </g>
</svg>