<?xml version="1.0" encoding="UTF-8" standalone="no"?>
<svg width="326px" height="171px" viewBox="0 0 326 171" version="1.1" xmlns="http://www.w3.org/2000/svg" xmlns:xlink="http://www.w3.org/1999/xlink" xmlns:sketch="http://www.bohemiancoding.com/sketch/ns">
    <title>cvc-front</title>
    <description>Created with Sketch (http://www.bohemiancoding.com/sketch)</description>
    <defs></defs>
    <g id="Page-1" stroke="none" stroke-width="1" fill="none" fill-rule="evenodd" sketch:type="MSPage">
        <rect id="Rectangle-1" fill="#000000" sketch:type="MSShapeGroup" x="70" y="0" width="256" height="170" rx="13"></rect>
        <rect id="Rectangle-1" fill="#FFFFFF" sketch:type="MSShapeGroup" x="77" y="7" width="242" height="156" rx="10"></rect>
        <rect id="Rectangle-1" fill="#000000" sketch:type="MSShapeGroup" x="83" y="13" width="230" height="144" rx="6"></rect>
        <rect id="Rectangle-2" fill="#FFFFFF" sketch:type="MSShapeGroup" x="102" y="32" width="41" height="29" rx="5"></rect>
        <path d="M200,98.76 L206.21,98.76 L206.21,82.245 L200.855,82.245 L200.855,78.15 C202.415008,77.8499985 203.734995,77.4900021 204.815,77.07 C205.895005,76.6499979 206.944995,76.140003 207.965,75.54 L212.825,75.54 L212.825,98.76 L218.18,98.76 L218.18,104.115 L200,104.115 L200,98.76 Z M223.275,100.335 C225.105009,98.6249915 226.777492,97.0275074 228.2925,95.5425 C229.807508,94.0574926 231.112495,92.6625065 232.2075,91.3575 C233.302505,90.0524935 234.157497,88.8375056 234.7725,87.7125 C235.387503,86.5874944 235.695,85.5150051 235.695,84.495 C235.695,83.084993 235.335004,82.0125037 234.615,81.2775 C233.894996,80.5424963 232.905006,80.175 231.645,80.175 C230.594995,80.175 229.665004,80.4674971 228.855,81.0525 C228.044996,81.6375029 227.280004,82.3199961 226.56,83.1 L222.96,79.545 C224.370007,78.0449925 225.809993,76.9125038 227.28,76.1475 C228.750007,75.3824962 230.50499,75 232.545,75 C233.955007,75 235.237494,75.2174978 236.3925,75.6525 C237.547506,76.0875022 238.544996,76.702496 239.385,77.4975 C240.225004,78.292504 240.869998,79.2449945 241.32,80.355 C241.770002,81.4650056 241.995,82.7099931 241.995,84.09 C241.995,85.290006 241.740003,86.5124938 241.23,87.7575 C240.719997,89.0025062 240.037504,90.2474938 239.1825,91.4925 C238.327496,92.7375062 237.352505,93.9824938 236.2575,95.2275 C235.162495,96.4725062 234.030006,97.694994 232.86,98.895 C233.580004,98.8049995 234.382496,98.7225004 235.2675,98.6475 C236.152504,98.5724996 236.939997,98.535 237.63,98.535 L243.39,98.535 L243.39,104.115 L223.275,104.115 L223.275,100.335 Z M250.42,96.42 C251.290004,97.2600042 252.242495,97.9499973 253.2775,98.49 C254.312505,99.0300027 255.444994,99.3 256.675,99.3 C258.085007,99.3 259.209996,99.0075029 260.05,98.4225 C260.890004,97.8374971 261.31,97.0050054 261.31,95.925 C261.31,95.2949969 261.197501,94.7250025 260.9725,94.215 C260.747499,93.7049975 260.350003,93.2775017 259.78,92.9325 C259.209997,92.5874983 258.430005,92.317501 257.44,92.1225 C256.449995,91.927499 255.175008,91.83 253.615,91.83 L253.615,87.15 C254.905006,87.15 255.977496,87.0600009 256.8325,86.88 C257.687504,86.6999991 258.377497,86.4375017 258.9025,86.0925 C259.427503,85.7474983 259.802499,85.3425023 260.0275,84.8775 C260.252501,84.4124977 260.365,83.8950029 260.365,83.325 C260.365,82.3349951 260.065003,81.5625028 259.465,81.0075 C258.864997,80.4524972 257.995006,80.175 256.855,80.175 C255.834995,80.175 254.912504,80.3999978 254.0875,80.85 C253.262496,81.3000023 252.400005,81.9149961 251.5,82.695 L248.17,78.645 C249.490007,77.5049943 250.877493,76.6125032 252.3325,75.9675 C253.787507,75.3224968 255.399991,75 257.17,75 C258.640007,75 259.982494,75.1724983 261.1975,75.5175 C262.412506,75.8625017 263.447496,76.3724966 264.3025,77.0475 C265.157504,77.7225034 265.824998,78.5399952 266.305,79.5 C266.785002,80.4600048 267.025,81.5699937 267.025,82.83 C267.025,84.3300075 266.612504,85.5974948 265.7875,86.6325 C264.962496,87.6675052 263.785008,88.5149967 262.255,89.175 L262.255,89.355 C263.905008,89.8350024 265.262495,90.6524942 266.3275,91.8075 C267.392505,92.9625058 267.925,94.4699907 267.925,96.33 C267.925,97.6500066 267.640003,98.8274948 267.07,99.8625 C266.499997,100.897505 265.735005,101.767496 264.775,102.4725 C263.814995,103.177504 262.690006,103.717498 261.4,104.0925 C260.109994,104.467502 258.745007,104.655 257.305,104.655 C254.964988,104.655 252.985008,104.287504 251.365,103.5525 C249.744992,102.817496 248.410005,101.835006 247.36,100.605 L250.42,96.42 Z M293.81,97.275 L290.525,97.275 L290.525,104.115 L284.36,104.115 L284.36,97.275 L271.985,97.275 L271.985,92.73 L282.425,75.54 L290.525,75.54 L290.525,92.235 L293.81,92.235 L293.81,97.275 Z M284.36,92.235 L284.36,87.6 C284.36,86.6699954 284.39,85.5975061 284.45,84.3825 C284.51,83.1674939 284.57,82.1100045 284.63,81.21 L284.45,81.21 C284.089998,81.9900039 283.715002,82.7849959 283.325,83.595 C282.934998,84.4050041 282.530002,85.214996 282.11,86.025 L278.33,92.235 L284.36,92.235 Z" id="1234" fill="#FFFFFF" sketch:type="MSShapeGroup"></path>
        <polygon id="Triangle-1" fill="#979797" sketch:type="MSShapeGroup" transform="translate(20.000000, 85.000000) rotate(-90.000000) translate(-20.000000, -85.000000) " points="20 65 58 105 -18 105 "></polygon>
    </g>
</svg>